<svg id="Calque_1" data-name="Calque 1" xmlns="http://www.w3.org/2000/svg" viewBox="0 0 404.79 98.17"><defs><style>.cls-1{fill:#ffc600;}</style></defs><title>nom_xena</title><path class="cls-1" d="M36.7,13.94H48.32l4.85,23.73,4.65-23.73H68.92L60.33,48.88,70,89.08H58.21L52.56,61.91,46.8,89.08H35.29l9.9-40.2Z"/><path class="cls-1" d="M98.21,13.94V24.85H83.67V44.54H95.08V56H83.67V77.67H98.81V89.08H72.25V13.94Z"/><path class="cls-1" d="M112.45,13.94l9.8,40.3V13.94h10.4V89.08h-9.29L112.45,45.85V89.08h-10.3V13.94Z"/><path class="cls-1" d="M154.87,74.94h-8.38l-1.41,14.14h-10.2l9.19-75.14H157.6l9.8,75.14h-11ZM147.7,63.73h6l-3-27.77Z"/><path class="cls-1" d="M172.14,98.17a37.79,37.79,0,0,0,2.12-9.09h-4.34V76.15h10.6v9.49a26.51,26.51,0,0,1-2.73,12.52Z"/><path class="cls-1" d="M206.07,28.08V40.9H195.17V27.17c0-7.17,2.93-13.94,12.42-13.94h2.32c8.48,0,13.94,3.84,13.94,13.94v3.74c0,8.89-.4,12.22-6.67,21.71-2,3.13-4.95,7.07-7.27,10.3-6.77,9.7-7.17,12.32-7.17,15.45h10.1V63.93h11.51V89.08H193.25V83.42c0-9.8,1.51-14.75,8.79-27.37l6.56-11.61c3.23-5.66,3.23-7.78,3.23-11.51V28.08c0-2.83-1-3.94-2.93-3.94C206.78,24.14,206.07,25.25,206.07,28.08Z"/><path class="cls-1" d="M228.39,55.45V13.94h28.08V25.25H239.6V42.12c1.92-3.94,5-7.37,9.19-7.37h.4c6,0,8,4.44,8,8.89V75.85c0,7.07-3.84,14.14-13.74,14.14h-2.12c-11.62,0-13.94-7.58-13.94-12.93V61.61H239.1V74.84c0,2.52.61,4.34,3,4.34,2.12,0,2.83-1.92,2.83-4.34V50.9c0-2.12-.1-4.44-2.63-4.44s-2.73,2.32-2.73,4.44v4.54Z"/><path class="cls-1" d="M289.19,74.94h-8.38L279.4,89.08H269.2l9.19-75.14h13.53l9.8,75.14h-11ZM282,63.73h6L285,36Z"/><path class="cls-1" d="M314.24,13.94l9.8,40.3V13.94h10.4V89.08h-9.29L314.24,45.85V89.08h-10.3V13.94Z"/><path class="cls-1" d="M354.94,13.23c9.39,0,13,4.14,13,13V38.58H357V27.77c0-2.53-.5-4.44-3.23-4.44S350.4,25,350.4,28.58V30c0,4.24.81,6.57,4.65,11.51l7.27,9.39c5.15,6.67,6.77,10.4,6.77,19v2.42c0,11-4.65,17.57-14.75,17.57h-2.22c-9.19,0-13.94-4.95-13.94-14.24v-15h11.31V73.73c0,3.54,1.21,5.25,3.74,5.25C356,79,357,77.26,357,72.52V70.8c0-5.45-.5-7.17-4.65-12.62L345,48.88c-4.85-6.26-6.26-11.11-6.26-18.58V27.87c0-10.1,5.05-14.64,14-14.64Z"/></svg>